
<svg xmlns="http://www.w3.org/2000/svg" viewBox="0 0 350 70" width="350" height="70">
  <!-- Background -->
  <rect width="350" height="70" fill="#ffffff" stroke="#2196F3" stroke-width="2" rx="5"/>
  
  <!-- Letter R -->
  <g transform="translate(15, 10)">
    <path d="M0 45 L0 5 C0 2, 2 0, 5 0 L20 0 C28 0, 32 4, 32 12 C32 18, 28 22, 24 23 L34 45 L26 45 L18 28 L12 28 L12 45 Z M12 8 L12 20 L20 20 C24 20, 26 18, 26 14 C26 10, 24 8, 20 8 Z" 
          fill="#2196F3" stroke="#ffffff" stroke-width="1"/>
    
    <!-- Eye -->
    <ellipse cx="21" cy="15" rx="8" ry="5" fill="#ffffff" stroke="#2196F3" stroke-width="2"/>
    <circle cx="21" cy="15" r="3" fill="#2196F3"/>
    <circle cx="22.5" cy="13.5" r="1" fill="#ffffff"/>
    
    <!-- Colorful dots -->
    <circle cx="28" cy="8" r="2" fill="#FF6B35"/>
    <circle cx="32" cy="12" r="1.5" fill="#F7931E"/>
    <circle cx="30" cy="5" r="1.8" fill="#E91E63"/>
  </g>

  <!-- Text -->
  <text x="70" y="25" font-family="Arial, sans-serif" font-size="16" font-weight="bold" fill="#2196F3">Dr. Richa's Eye Clinic</text>
  <text x="70" y="40" font-family="Arial, sans-serif" font-size="10" font-weight="500" fill="#666666">Vision that shines, Care that matters</text>
  <text x="70" y="55" font-family="Arial, sans-serif" font-size="10" font-weight="500" fill="#e83e8c">A hub for your family and kid's eyes</text>
</svg>
